<?xml version="1.0" standalone="no"?>
<!DOCTYPE svg PUBLIC "-//W3C//DTD SVG 20010904//EN"
 "http://www.w3.org/TR/2001/REC-SVG-20010904/DTD/svg10.dtd">
<svg version="1.0" xmlns="http://www.w3.org/2000/svg"
 width="600.000000pt" height="412.000000pt" viewBox="0 0 600.000000 412.000000"
 preserveAspectRatio="xMidYMid meet">

<g transform="translate(0.000000,412.000000) scale(0.100000,-0.100000)"
fill="#000000" stroke="none">
<path d="M2165 3486 c-294 -76 -551 -274 -651 -502 -14 -33 -30 -68 -34 -79
-22 -49 -31 -108 -37 -221 -7 -147 0 -194 28 -194 37 0 89 -29 109 -62 38 -61
13 -152 -50 -179 -16 -8 -30 -21 -30 -30 0 -8 14 -64 30 -123 23 -82 39 -118
69 -156 38 -49 69 -136 54 -151 -14 -14 -209 -88 -316 -120 -73 -21 -103 -26
-113 -18 -21 18 -44 101 -41 154 l3 50 -76 -6 c-41 -3 -89 -11 -107 -17 -17
-5 -35 -7 -39 -4 -4 4 -4 2 -1 -4 4 -7 1 -17 -7 -23 -10 -8 -16 -8 -26 3 -6 9
-9 20 -5 25 7 13 -27 2 -36 -11 -3 -5 -37 -11 -75 -14 -38 -3 -85 -11 -104
-18 -48 -18 -125 -36 -155 -36 -13 0 -27 -4 -30 -10 -3 -5 1 -10 9 -10 9 0 16
-4 16 -10 0 -5 -12 -10 -28 -10 -29 0 -72 -24 -72 -41 0 -5 12 -6 26 -3 20 5
25 4 19 -5 -4 -8 -22 -11 -46 -9 -22 2 -39 0 -39 -3 0 -20 13 -37 25 -33 7 3
16 0 20 -6 4 -7 -2 -14 -14 -17 -16 -4 -21 -13 -21 -40 0 -22 -4 -32 -11 -28
-6 4 -5 -1 2 -13 10 -17 8 -27 -14 -65 -33 -56 -33 -65 -2 -79 30 -14 31 -22
4 -59 l-21 -29 31 -36 c35 -39 41 -91 16 -134 -21 -36 -18 -83 6 -113 26 -34
131 -67 211 -67 71 0 269 -28 281 -39 5 -5 -65 -66 -155 -137 -280 -221 -440
-397 -536 -589 -63 -127 -64 -121 12 -144 35 -11 77 -18 93 -16 15 2 31 4 35
4 4 1 6 7 4 14 -1 6 -1 9 1 5 9 -15 33 -8 33 10 0 23 19 42 42 42 10 0 18 4
18 9 0 11 39 25 110 40 91 19 105 23 112 35 5 8 8 7 8 -1 0 -7 5 -13 10 -13 7
0 7 6 0 20 -6 11 -7 20 -3 20 4 0 1 4 -7 10 -8 5 -11 12 -7 16 4 4 14 -1 22
-12 14 -19 14 -19 16 1 1 11 1 28 1 38 -1 10 5 28 13 40 l15 21 0 -22 c0 -13
6 -22 16 -22 8 0 12 -4 9 -10 -10 -16 1 -12 15 6 8 8 9 14 4 13 -19 -3 -34 1
-34 12 0 5 4 8 9 5 5 -4 4 10 -2 29 -7 23 -23 43 -45 57 -43 27 -71 71 -64
104 7 39 39 48 108 31 35 -9 80 -13 111 -10 40 4 59 1 80 -12 16 -10 22 -12
16 -4 -15 15 -17 49 -4 49 5 0 14 13 21 30 7 16 16 27 21 24 5 -3 9 2 9 10 0
19 16 21 23 4 3 -7 6 -3 6 10 1 13 12 33 26 46 14 13 25 28 25 34 0 6 13 16
29 23 16 7 28 16 25 20 -2 4 0 10 6 14 6 4 8 12 4 18 -14 30 60 -62 77 -95 29
-57 49 -154 49 -243 0 -94 -12 -119 -112 -241 -57 -70 -118 -162 -118 -178 0
-3 903 -6 2007 -6 l2007 0 -35 36 c-18 19 -62 49 -96 66 -56 27 -74 31 -212
39 -282 17 -315 46 -392 346 -12 46 -25 83 -31 83 -5 0 -6 5 -2 12 4 7 3 8 -4
4 -11 -7 -95 72 -146 138 -17 22 -41 39 -58 43 -16 3 -26 9 -21 12 15 11 13
30 -2 25 -8 -4 -15 -1 -15 4 0 36 -177 41 -323 10 -144 -30 -222 -28 -282 6
-50 30 -98 95 -115 156 -6 19 -17 76 -26 125 -25 145 -40 188 -85 239 -48 54
-91 78 -186 104 l-68 19 -3 172 c-2 163 -3 171 -21 162 -10 -6 -54 -23 -99
-40 l-81 -29 10 25 c5 13 7 29 4 33 -3 5 -1 53 4 107 7 77 16 113 40 163 37
76 37 78 9 54 -13 -10 -9 -4 7 14 l30 33 3 -79 c2 -61 -2 -92 -18 -133 -23
-62 -25 -73 -8 -63 7 4 8 3 4 -5 -4 -6 -12 -9 -17 -6 -5 4 -12 -1 -16 -10 -3
-10 0 -21 7 -25 8 -5 9 -10 1 -14 -6 -4 -16 -17 -23 -29 -9 -18 -4 -16 24 9
20 17 59 42 87 54 50 23 51 24 51 67 0 47 -5 51 -38 27 -31 -21 -28 -3 9 51
l31 46 -6 277 c-3 152 -5 322 -6 378 l0 101 -37 11 c-30 9 -39 9 -42 -1 -2 -6
-18 -26 -36 -44 -102 -102 -265 -33 -265 114 l0 48 -93 33 c-50 17 -95 32 -99
32 -5 0 -8 -12 -8 -27 0 -16 -9 -60 -21 -100 l-21 -71 24 -74 c26 -75 128
-265 128 -237 0 44 -32 251 -46 295 -17 56 -8 94 22 94 22 0 27 -23 15 -67 -8
-29 -6 -74 8 -193 40 -323 42 -377 11 -497 -10 -40 -14 -71 -10 -68 4 3 11 -3
14 -12 13 -32 30 5 28 59 -1 29 5 67 12 83 14 30 14 29 15 -30 1 -51 3 -57 15
-45 20 21 56 132 56 173 0 19 -9 54 -19 78 -30 67 -48 208 -33 256 29 91 59
93 102 7 38 -75 40 -181 5 -265 -14 -35 -39 -104 -56 -153 -16 -49 -45 -115
-64 -146 -23 -38 -33 -64 -29 -76 6 -16 4 -17 -6 -7 -11 10 -17 9 -32 -3 -17
-16 -16 -18 11 -53 28 -36 91 -155 91 -173 0 -5 -14 -1 -30 9 -20 11 -44 43
-68 90 -20 40 -42 73 -48 73 -26 0 -39 -54 -39 -164 0 -174 18 -210 115 -231
33 -7 34 -7 20 11 -13 16 -13 17 0 9 8 -5 21 -17 28 -27 16 -22 41 -23 48 -3
4 8 10 12 15 9 5 -3 6 1 4 8 -3 8 6 25 20 38 l25 24 -11 -35 c-7 -19 -18 -41
-25 -50 -20 -22 -18 -27 17 -34 17 -4 28 -9 25 -12 -5 -6 -482 152 -506 167
-29 19 8 9 119 -30 61 -22 114 -40 115 -40 2 0 -3 21 -11 48 -10 33 -16 113
-19 277 l-5 230 -54 90 c-56 93 -87 169 -100 243 -5 32 -4 42 7 42 27 0 115
-59 143 -96 29 -38 29 -38 35 -14 5 21 9 16 28 -35 11 -33 24 -82 27 -110 9
-71 16 -86 25 -55 13 43 11 104 -6 154 -12 35 -40 73 -108 143 -50 52 -101 99
-113 104 -25 9 -30 38 -11 68 10 16 13 17 26 5 7 -8 18 -31 24 -50 6 -24 39
-67 94 -125 46 -49 84 -94 84 -101 0 -6 2 -9 5 -6 11 11 -30 118 -76 199 -27
47 -62 123 -78 170 -16 46 -40 111 -55 144 -16 39 -26 79 -26 112 0 50 -2 54
-32 68 -29 12 -30 13 -6 9 25 -5 28 -2 38 38 6 23 22 71 35 106 15 40 19 62
12 62 -9 0 -11 27 -10 90 2 81 -6 111 -21 78 -3 -7 -3 -2 0 12 4 14 11 27 15
28 5 2 9 8 9 13 0 15 -49 10 -145 -15z m-192 -320 c37 -21 66 -43 64 -49 -2
-6 -30 -34 -64 -64 l-60 -53 -45 35 -46 34 14 68 c21 99 20 98 47 81 12 -8 53
-32 90 -52z m217 -348 l0 -251 -57 56 c-80 78 -138 120 -229 166 -103 52 -114
54 -147 33 l-29 -17 2 -417 c0 -276 -3 -419 -10 -423 -7 -4 -10 131 -10 422
l0 428 33 19 c74 44 433 236 440 236 4 0 7 -113 7 -252z m390 -108 c0 -5 -4
-10 -10 -10 -5 0 -10 5 -10 10 0 6 5 10 10 10 6 0 10 -4 10 -10z m200 -40 c0
-5 -4 -10 -10 -10 -5 0 -10 5 -10 10 0 6 5 10 10 10 6 0 10 -4 10 -10z m-520
-100 c0 -5 -4 -10 -10 -10 -5 0 -10 5 -10 10 0 6 5 10 10 10 6 0 10 -4 10 -10z
m635 -90 c3 -5 1 -10 -4 -10 -6 0 -11 5 -11 10 0 6 2 10 4 10 3 0 8 -4 11 -10z
m35 -110 c0 -5 -4 -10 -10 -10 -5 0 -10 5 -10 10 0 6 5 10 10 10 6 0 10 -4 10
-10z m-281 -462 c1 -66 -12 -108 -34 -108 -24 0 -23 100 3 174 17 48 17 48 23
20 4 -16 7 -55 8 -86z m-932 -60 c-2 -18 -4 -6 -4 27 0 33 2 48 4 33 2 -15 2
-42 0 -60z m1011 -50 c12 -51 22 -103 22 -115 0 -13 4 -23 8 -23 5 0 8 -13 7
-30 l-2 -29 34 29 c41 36 77 55 123 65 l35 7 -34 -35 c-19 -20 -64 -51 -101
-69 l-68 -34 -5 51 c-5 49 -47 140 -55 117 -2 -6 2 -21 8 -33 8 -15 9 -19 1
-15 -6 4 -14 -1 -18 -11 -11 -30 -58 -80 -68 -71 -6 4 -23 19 -40 32 -33 26
-82 106 -66 106 19 0 89 -70 95 -95 10 -41 24 -29 31 28 8 57 29 107 47 107 7
0 9 17 6 50 -5 47 -2 60 12 60 3 0 16 -42 28 -92z m-1011 -245 c-1 -43 -3 -8
-3 77 0 85 2 120 3 78 2 -43 2 -113 0 -155z m-73 165 c-12 -40 -41 -92 -60
-109 -74 -65 -191 -78 -275 -32 -27 14 -46 30 -42 33 5 4 50 19 100 34 51 14
132 41 180 60 106 42 106 42 97 14z m804 -309 l302 -103 0 -57 c0 -55 -1 -57
-41 -85 l-40 -28 -312 106 -312 105 -3 60 c-3 58 -2 60 35 86 21 15 45 26 53
23 8 -2 151 -50 318 -107z m299 89 c-3 -8 -6 -5 -6 6 -1 11 2 17 5 13 3 -3 4
-12 1 -19z m3 -48 c8 -5 11 -10 5 -10 -5 0 -17 5 -25 10 -8 5 -10 10 -5 10 6
0 17 -5 25 -10z m-1297 -7 c9 -9 -13 -34 -24 -27 -14 8 -11 34 4 34 8 0 17 -3
20 -7z m-63 -121 c0 -13 -12 -22 -22 -16 -10 6 -1 24 13 24 5 0 9 -4 9 -8z
m-275 -32 c3 -5 1 -10 -4 -10 -6 0 -11 5 -11 10 0 6 2 10 4 10 3 0 8 -4 11
-10z m1116 -99 c162 -54 302 -102 312 -106 13 -6 17 -19 17 -60 0 -50 -2 -55
-40 -85 l-40 -31 -315 107 -315 107 0 58 c0 53 3 60 33 83 17 14 37 26 43 26
5 0 143 -45 305 -99z m-651 19 c0 -5 -4 -10 -10 -10 -5 0 -10 5 -10 10 0 6 5
10 10 10 6 0 10 -4 10 -10z m-170 -50 c0 -5 -5 -10 -11 -10 -5 0 -7 5 -4 10 3
6 8 10 11 10 2 0 4 -4 4 -10z m620 -191 c146 -49 281 -95 300 -102 33 -12 35
-16 38 -63 3 -48 1 -53 -33 -83 -20 -17 -42 -31 -49 -31 -12 0 -542 176 -608
202 -26 10 -28 15 -28 63 0 51 2 55 42 84 25 18 49 29 58 25 8 -3 134 -46 280
-95z m-695 41 c3 -5 1 -10 -4 -10 -6 0 -11 5 -11 10 0 6 2 10 4 10 3 0 8 -4
11 -10z m110 0 c-3 -5 -11 -10 -16 -10 -6 0 -7 5 -4 10 3 6 11 10 16 10 6 0 7
-4 4 -10z m-35 -14 c0 -3 -4 -8 -10 -11 -5 -3 -10 -1 -10 4 0 6 5 11 10 11 6
0 10 -2 10 -4z m-20 -36 c0 -5 -2 -10 -4 -10 -3 0 -8 5 -11 10 -3 6 -1 10 4
10 6 0 11 -4 11 -10z m1566 -1 c10 -17 -13 -36 -27 -22 -12 12 -4 33 11 33 5
0 12 -5 16 -11z m-296 -36 c8 -1 47 -7 87 -12 60 -9 134 -27 235 -58 10 -3 15
-9 12 -14 -3 -5 -2 -8 3 -7 4 2 27 -4 51 -11 33 -11 42 -19 39 -32 -4 -16 12
-30 36 -33 4 -1 6 -4 5 -8 -2 -3 7 -17 19 -30 13 -13 29 -44 36 -69 l14 -45
-31 4 c-27 4 -28 6 -11 13 18 7 17 8 -6 8 -14 1 -29 -3 -35 -9 -5 -5 -20 -6
-34 -3 -22 6 -23 7 -4 15 13 6 6 7 -21 3 -22 -2 -50 -5 -62 -5 -14 0 -23 -6
-23 -15 0 -16 -20 -19 -71 -8 -33 7 -33 7 -9 14 14 4 -24 7 -87 8 -68 1 -113
5 -113 11 0 6 -11 10 -24 10 -13 0 -50 14 -84 31 l-60 31 15 52 c21 72 81 178
96 169 7 -4 19 -9 27 -10z m639 -30 c-15 -18 -34 -1 -25 22 5 14 9 15 21 5 12
-10 13 -16 4 -27z m-2055 -14 c-3 -5 -10 -7 -15 -3 -5 3 -7 10 -3 15 3 5 10 7
15 3 5 -3 7 -10 3 -15z m639 -151 l298 -101 -3 -56 c-3 -52 -5 -57 -43 -83
l-41 -29 -317 108 -317 107 0 52 c0 49 3 55 38 84 28 23 43 29 62 25 14 -4
159 -52 323 -107z m587 42 c0 -5 -2 -10 -4 -10 -3 0 -8 5 -11 10 -3 6 -1 10 4
10 6 0 11 -4 11 -10z m373 -167 c-13 -2 -33 -2 -45 0 -13 2 -3 4 22 4 25 0 35
-2 23 -4z m42 -83 c0 -7 -6 -15 -12 -17 -8 -3 -13 4 -13 17 0 13 5 20 13 18 6
-3 12 -11 12 -18z m634 -14 c9 -11 8 -15 -5 -20 -20 -8 -39 7 -30 23 10 15 21
14 35 -3z m362 -46 c21 -12 25 -40 7 -58 -18 -18 -46 -14 -58 9 -9 16 -8 25 6
40 20 22 20 22 45 9z m-2321 -120 c0 -5 -4 -10 -10 -10 -5 0 -10 5 -10 10 0 6
5 10 10 10 6 0 10 -4 10 -10z m494 -31 c-3 -5 -10 -7 -15 -3 -5 3 -7 10 -3 15
3 5 10 7 15 3 5 -3 7 -10 3 -15z m1281 -48 c7 -12 -12 -24 -25 -16 -11 7 -4
25 10 25 5 0 11 -4 15 -9z m-560 -91 c13 0 27 -4 30 -10 4 -6 -7 -10 -24 -10
-28 0 -31 -3 -33 -32 l-1 -33 -4 33 c-4 28 -8 32 -34 32 -18 0 -28 4 -24 10 3
6 17 10 31 10 19 0 24 5 25 28 l2 27 4 -27 c3 -22 10 -28 28 -28z m-1005 -9
c0 -6 -4 -13 -10 -16 -5 -3 -10 1 -10 9 0 9 5 16 10 16 6 0 10 -4 10 -9z"/>
<path d="M1880 3190 c0 -15 31 -154 36 -159 4 -5 104 79 104 87 0 12 -140 83
-140 72z"/>
<path d="M1850 3131 l-13 -55 29 -22 c15 -13 29 -22 31 -21 1 2 -6 36 -15 77
l-18 75 -14 -54z"/>
<path d="M2968 653 c6 -2 18 -2 25 0 6 3 1 5 -13 5 -14 0 -19 -2 -12 -5z"/>
<path d="M3840 431 c0 -27 19 -36 37 -18 18 18 9 37 -18 37 -12 0 -19 -7 -19
-19z"/>
<path d="M2361 3124 c0 -11 3 -14 6 -6 3 7 2 16 -1 19 -3 4 -6 -2 -5 -13z"/>
<path d="M2292 3080 c0 -19 2 -27 5 -17 2 9 2 25 0 35 -3 9 -5 1 -5 -18z"/>
<path d="M2322 3065 c0 -16 2 -22 5 -12 2 9 2 23 0 30 -3 6 -5 -1 -5 -18z"/>
<path d="M2402 3070 c0 -14 2 -19 5 -12 2 6 2 18 0 25 -3 6 -5 1 -5 -13z"/>
<path d="M2284 2990 c4 -28 11 -60 17 -73 8 -18 9 -14 4 18 -2 22 -5 55 -5 73
0 17 -5 32 -11 32 -8 0 -10 -16 -5 -50z"/>
<path d="M2321 2978 c0 -39 3 -48 9 -33 12 28 12 73 0 80 -6 4 -10 -14 -9 -47z"/>
<path d="M2351 2947 l1 -72 13 50 c18 68 18 82 0 89 -13 4 -15 -6 -14 -67z"/>
<path d="M2645 2605 c4 -38 11 -117 14 -175 l6 -105 20 40 c37 79 19 255 -32
297 -15 12 -15 7 -8 -57z"/>
<path d="M2605 2626 c-12 -43 1 -185 22 -241 l18 -50 3 35 c4 40 -17 235 -28
265 -7 18 -9 17 -15 -9z"/>
<path d="M2260 2456 c0 -4 7 -36 16 -70 15 -58 58 -146 105 -211 l21 -30 -7
30 c-4 17 -8 46 -10 65 -3 45 -49 140 -91 188 -18 20 -33 33 -34 28z"/>
<path d="M2334 2396 c24 -37 51 -94 60 -129 25 -92 27 -96 36 -65 20 68 -40
202 -107 241 l-32 18 43 -65z"/>
<path d="M2448 2226 c-5 -61 -3 -73 15 -98 18 -25 22 -26 30 -12 7 12 4 26 -9
48 -10 17 -21 54 -24 81 l-6 50 -6 -69z"/>
<path d="M2416 2103 c-9 -10 -7 -171 3 -177 4 -3 16 21 26 54 15 50 16 64 5
90 -14 33 -24 43 -34 33z"/>
<path d="M2471 2012 c-7 -13 -11 -30 -9 -38 3 -13 5 -13 23 -1 16 12 17 19 9
38 l-11 24 -12 -23z"/>
<path d="M375 1540 c-3 -5 -1 -10 4 -10 6 0 11 5 11 10 0 6 -2 10 -4 10 -3 0
-8 -4 -11 -10z"/>
<path d="M708 493 c7 -3 16 -2 19 1 4 3 -2 6 -13 5 -11 0 -14 -3 -6 -6z"/>
<path d="M696 472 c-3 -5 13 -26 34 -47 22 -22 40 -33 40 -26 0 7 9 25 20 41
l20 28 -23 6 c-32 9 -85 7 -91 -2z"/>
<path d="M893 470 c16 -5 36 -6 44 -3 10 4 14 2 10 -4 -7 -12 17 -26 27 -16
12 13 -31 32 -69 32 -38 -1 -38 -1 -12 -9z"/>
<path d="M812 440 c-37 -35 -28 -66 29 -100 11 -6 16 -5 16 5 0 8 -4 12 -9 9
-4 -3 -8 0 -8 5 0 6 5 11 11 11 5 0 16 15 24 34 12 27 19 33 37 30 13 -2 7 2
-12 10 -48 20 -63 19 -88 -4z"/>
<path d="M680 446 c0 -2 8 -10 18 -17 15 -13 16 -12 3 4 -13 16 -21 21 -21 13z"/>
<path d="M950 420 c8 -5 20 -10 25 -10 6 0 3 5 -5 10 -8 5 -19 10 -25 10 -5 0
-3 -5 5 -10z"/>
<path d="M790 338 c0 -10 5 -18 11 -18 5 0 8 -4 5 -9 -3 -4 5 -18 18 -30 16
-15 26 -19 31 -12 4 7 1 10 -7 9 -7 -2 -13 4 -13 12 0 8 6 14 13 12 8 -1 11 2
7 9 -5 8 -10 8 -18 0 -18 -18 -31 -13 -16 7 7 9 9 14 5 10 -5 -4 -15 0 -22 10
-13 16 -13 16 -14 0z"/>
</g>
</svg>
